<svg xmlns="http://www.w3.org/2000/svg" width="381.776" height="24.724" viewBox="0 0 381.776 24.724"><g id="Grupo_25" data-name="Grupo 25" transform="translate(-444.216 127.032)"><path id="Trazado_125" data-name="Trazado 125" d="M-382.624,0a.141.141,0,0,1-.16-.16V-11.04a.141.141,0,0,1,.16-.16h1.216a.141.141,0,0,1,.16.16v9.648a.057.057,0,0,0,.064.064h5.52a.141.141,0,0,1,.16.16V-.16a.141.141,0,0,1-.16.16Zm11.744-8.272a3.95,3.95,0,0,1,1.7.344,2.611,2.611,0,0,1,1.12.96,2.552,2.552,0,0,1,.392,1.4V-.16a.141.141,0,0,1-.16.16h-1.216a.141.141,0,0,1-.16-.16V-.736q0-.08-.08-.032A2.78,2.78,0,0,1-370.3-.1a3.678,3.678,0,0,1-1.336.232,3.11,3.11,0,0,1-1.96-.6,2.152,2.152,0,0,1-.776-1.816,2.393,2.393,0,0,1,.872-1.96,3.758,3.758,0,0,1,2.44-.712h1.792a.057.057,0,0,0,.064-.064v-.432a1.448,1.448,0,0,0-.408-1.1,1.73,1.73,0,0,0-1.24-.392,2.046,2.046,0,0,0-1.1.264,1.087,1.087,0,0,0-.52.712.17.17,0,0,1-.192.144l-1.3-.176q-.16-.032-.144-.128a2.179,2.179,0,0,1,1.008-1.544A3.832,3.832,0,0,1-370.88-8.272Zm-.416,7.1a2.457,2.457,0,0,0,1.472-.448,1.349,1.349,0,0,0,.624-1.136V-3.7a.057.057,0,0,0-.064-.064h-1.5a2.706,2.706,0,0,0-1.5.368,1.161,1.161,0,0,0-.56,1.024,1.032,1.032,0,0,0,.424.9A1.867,1.867,0,0,0-371.3-1.168Zm9.344-7.088a2.827,2.827,0,0,1,2.08.76A2.762,2.762,0,0,1-359.1-5.44V-.16a.141.141,0,0,1-.16.16h-1.216a.141.141,0,0,1-.16-.16V-5.136a1.821,1.821,0,0,0-.464-1.3,1.607,1.607,0,0,0-1.232-.5,1.639,1.639,0,0,0-1.232.5,1.764,1.764,0,0,0-.48,1.28V-.16a.141.141,0,0,1-.16.16h-1.216a.141.141,0,0,1-.16-.16V-7.984a.141.141,0,0,1,.16-.16h1.216a.141.141,0,0,1,.16.16v.576a.054.054,0,0,0,.024.048q.024.016.04-.016A2.422,2.422,0,0,1-361.952-8.256Zm10-2.784a.141.141,0,0,1,.16-.16h1.216a.141.141,0,0,1,.16.16V-.16a.141.141,0,0,1-.16.16h-1.216a.141.141,0,0,1-.16-.16V-.688a.054.054,0,0,0-.024-.048q-.024-.016-.056.016a2.513,2.513,0,0,1-.832.624,2.429,2.429,0,0,1-1.04.224,3.105,3.105,0,0,1-1.912-.568,3.234,3.234,0,0,1-1.112-1.608,6.094,6.094,0,0,1-.3-2.048,6.5,6.5,0,0,1,.256-1.936,3.261,3.261,0,0,1,1.1-1.648,3.131,3.131,0,0,1,1.968-.592,2.522,2.522,0,0,1,1.032.216,2.4,2.4,0,0,1,.84.616q.032.032.056.016a.054.054,0,0,0,.024-.048Zm-.4,8.976a4.322,4.322,0,0,0,.368-2.016,4.218,4.218,0,0,0-.4-2.048,1.479,1.479,0,0,0-1.36-.816,1.549,1.549,0,0,0-1.424.768,3.869,3.869,0,0,0-.512,2.112,4.229,4.229,0,0,0,.4,1.984,1.589,1.589,0,0,0,1.52.88A1.526,1.526,0,0,0-352.352-2.064Zm5.12-7.36a1,1,0,0,1-.736-.288,1,1,0,0,1-.288-.736,1,1,0,0,1,.288-.736,1,1,0,0,1,.736-.288,1,1,0,0,1,.736.288,1,1,0,0,1,.288.736,1,1,0,0,1-.288.736A1,1,0,0,1-347.232-9.424Zm-.64,9.408a.141.141,0,0,1-.16-.16V-7.984a.141.141,0,0,1,.16-.16h1.216a.141.141,0,0,1,.16.16V-.176a.141.141,0,0,1-.16.16Zm7.424-8.24a2.827,2.827,0,0,1,2.08.76A2.762,2.762,0,0,1-337.6-5.44V-.16a.141.141,0,0,1-.16.16h-1.216a.141.141,0,0,1-.16-.16V-5.136a1.821,1.821,0,0,0-.464-1.3,1.607,1.607,0,0,0-1.232-.5,1.639,1.639,0,0,0-1.232.5,1.764,1.764,0,0,0-.48,1.28V-.16a.141.141,0,0,1-.16.16h-1.216a.141.141,0,0,1-.16-.16V-7.984a.141.141,0,0,1,.16-.16h1.216a.141.141,0,0,1,.16.16v.576a.054.054,0,0,0,.024.048q.024.016.04-.016A2.422,2.422,0,0,1-340.448-8.256Zm10.048.272a.141.141,0,0,1,.16-.16h1.216a.141.141,0,0,1,.16.16V-.416a3.257,3.257,0,0,1-1.1,2.768,4.738,4.738,0,0,1-2.936.832q-.256,0-.8-.032a.158.158,0,0,1-.16-.176l.048-1.1a.153.153,0,0,1,.048-.112.133.133,0,0,1,.128-.032q.224.016.656.016a3.079,3.079,0,0,0,1.968-.5,2.1,2.1,0,0,0,.608-1.7V-.752a.054.054,0,0,0-.024-.048q-.024-.016-.056.016A2.449,2.449,0,0,1-332.448,0a3.384,3.384,0,0,1-1.88-.544,2.8,2.8,0,0,1-1.16-1.6A7.192,7.192,0,0,1-335.7-4.1a6.783,6.783,0,0,1,.24-2.048,3.022,3.022,0,0,1,1.08-1.544,2.961,2.961,0,0,1,1.832-.584,2.7,2.7,0,0,1,2.064.8q.032.032.056.024a.037.037,0,0,0,.024-.04Zm-.1,5.376a5.39,5.39,0,0,0,.072-.544q.024-.288.024-.96t-.024-.952a3.41,3.41,0,0,0-.088-.536,1.694,1.694,0,0,0-.576-.968,1.683,1.683,0,0,0-1.12-.376,1.683,1.683,0,0,0-1.12.376,2.065,2.065,0,0,0-.64.968,4.638,4.638,0,0,0-.176,1.488,4.68,4.68,0,0,0,.16,1.5,1.809,1.809,0,0,0,.632.968,1.779,1.779,0,0,0,1.144.376,1.7,1.7,0,0,0,1.144-.376A1.712,1.712,0,0,0-330.5-2.608Zm11.552-8.608a3.52,3.52,0,0,1,1.72.408,2.866,2.866,0,0,1,1.152,1.144,3.44,3.44,0,0,1,.408,1.7,3.3,3.3,0,0,1-.416,1.68,2.87,2.87,0,0,1-1.176,1.12,3.707,3.707,0,0,1-1.752.4h-2.816a.057.057,0,0,0-.064.064V-.16a.141.141,0,0,1-.16.16h-1.216a.141.141,0,0,1-.16-.16v-10.9a.141.141,0,0,1,.16-.16Zm-.208,5.2a1.93,1.93,0,0,0,1.416-.528,1.867,1.867,0,0,0,.536-1.392,1.914,1.914,0,0,0-.536-1.416,1.914,1.914,0,0,0-1.416-.536h-2.672a.057.057,0,0,0-.064.064V-6.08a.057.057,0,0,0,.064.064Zm8.032-2.256a3.95,3.95,0,0,1,1.7.344,2.611,2.611,0,0,1,1.12.96,2.552,2.552,0,0,1,.392,1.4V-.16a.141.141,0,0,1-.16.16h-1.216a.141.141,0,0,1-.16-.16V-.736q0-.08-.08-.032a2.78,2.78,0,0,1-1.016.664,3.678,3.678,0,0,1-1.336.232,3.11,3.11,0,0,1-1.96-.6,2.152,2.152,0,0,1-.776-1.816,2.393,2.393,0,0,1,.872-1.96,3.758,3.758,0,0,1,2.44-.712h1.792a.057.057,0,0,0,.064-.064v-.432a1.448,1.448,0,0,0-.408-1.1,1.73,1.73,0,0,0-1.24-.392,2.046,2.046,0,0,0-1.1.264,1.087,1.087,0,0,0-.52.712.17.17,0,0,1-.192.144l-1.3-.176q-.16-.032-.144-.128a2.179,2.179,0,0,1,1.008-1.544A3.832,3.832,0,0,1-311.12-8.272Zm-.416,7.1a2.457,2.457,0,0,0,1.472-.448,1.349,1.349,0,0,0,.624-1.136V-3.7a.057.057,0,0,0-.064-.064h-1.5a2.706,2.706,0,0,0-1.5.368,1.161,1.161,0,0,0-.56,1.024,1.032,1.032,0,0,0,.424.9A1.867,1.867,0,0,0-311.536-1.168Zm10.72-6.816a.141.141,0,0,1,.16-.16h1.216a.141.141,0,0,1,.16.16V-.416a3.257,3.257,0,0,1-1.1,2.768,4.738,4.738,0,0,1-2.936.832q-.256,0-.8-.032a.158.158,0,0,1-.16-.176l.048-1.1a.153.153,0,0,1,.048-.112.133.133,0,0,1,.128-.032q.224.016.656.016a3.079,3.079,0,0,0,1.968-.5,2.1,2.1,0,0,0,.608-1.7V-.752A.054.054,0,0,0-300.84-.8q-.024-.016-.056.016A2.449,2.449,0,0,1-302.864,0a3.384,3.384,0,0,1-1.88-.544,2.8,2.8,0,0,1-1.16-1.6,7.192,7.192,0,0,1-.208-1.952,6.783,6.783,0,0,1,.24-2.048,3.022,3.022,0,0,1,1.08-1.544,2.961,2.961,0,0,1,1.832-.584,2.7,2.7,0,0,1,2.064.8q.032.032.056.024a.037.037,0,0,0,.024-.04Zm-.1,5.376a5.39,5.39,0,0,0,.072-.544q.024-.288.024-.96t-.024-.952a3.41,3.41,0,0,0-.088-.536,1.694,1.694,0,0,0-.576-.968,1.683,1.683,0,0,0-1.12-.376,1.683,1.683,0,0,0-1.12.376,2.065,2.065,0,0,0-.64.968,4.638,4.638,0,0,0-.176,1.488,4.68,4.68,0,0,0,.16,1.5,1.809,1.809,0,0,0,.632.968,1.779,1.779,0,0,0,1.144.376,1.7,1.7,0,0,0,1.144-.376A1.712,1.712,0,0,0-300.912-2.608Zm10.368-2.48a12.712,12.712,0,0,1,.048,1.472.141.141,0,0,1-.16.16h-5.1a.057.057,0,0,0-.064.064,2.769,2.769,0,0,0,.1.832,1.71,1.71,0,0,0,.712,1,2.374,2.374,0,0,0,1.352.36,2.055,2.055,0,0,0,1.824-.976q.08-.16.208-.048l.912.608a.152.152,0,0,1,.048.208,3.106,3.106,0,0,1-1.272,1.136,4.078,4.078,0,0,1-1.864.416,3.578,3.578,0,0,1-1.968-.512,3.122,3.122,0,0,1-1.2-1.456,6.074,6.074,0,0,1-.384-2.288,6.785,6.785,0,0,1,.176-1.776,3.058,3.058,0,0,1,1.152-1.744,3.423,3.423,0,0,1,2.1-.64,3.264,3.264,0,0,1,2.416.808A3.888,3.888,0,0,1-290.544-5.088Zm-3.392-1.856a1.811,1.811,0,0,0-1.136.344,1.7,1.7,0,0,0-.608.92,3.74,3.74,0,0,0-.144.9.057.057,0,0,0,.064.064h3.664a.057.057,0,0,0,.064-.064,4.684,4.684,0,0,0-.1-.784,1.815,1.815,0,0,0-.632-1A1.828,1.828,0,0,0-293.936-6.944Zm12.144-1.28a2.046,2.046,0,0,1,.928.208.148.148,0,0,1,.08.192l-.256,1.2q-.016.144-.192.1a1.674,1.674,0,0,0-.64-.112l-.224.016a1.794,1.794,0,0,0-1.24.52,1.72,1.72,0,0,0-.488,1.272V-.16a.141.141,0,0,1-.16.16H-285.2a.141.141,0,0,1-.16-.16V-7.984a.141.141,0,0,1,.16-.16h1.216a.141.141,0,0,1,.16.16v.848q0,.048.024.056t.04-.024A2.23,2.23,0,0,1-281.792-8.224Zm8.832,3.136a12.712,12.712,0,0,1,.048,1.472.141.141,0,0,1-.16.16h-5.1a.057.057,0,0,0-.064.064,2.769,2.769,0,0,0,.1.832,1.71,1.71,0,0,0,.712,1,2.374,2.374,0,0,0,1.352.36,2.055,2.055,0,0,0,1.824-.976q.08-.16.208-.048l.912.608a.152.152,0,0,1,.048.208A3.106,3.106,0,0,1-274.36-.272a4.078,4.078,0,0,1-1.864.416,3.578,3.578,0,0,1-1.968-.512,3.122,3.122,0,0,1-1.2-1.456,6.074,6.074,0,0,1-.384-2.288,6.785,6.785,0,0,1,.176-1.776,3.058,3.058,0,0,1,1.152-1.744,3.423,3.423,0,0,1,2.1-.64,3.264,3.264,0,0,1,2.416.808A3.888,3.888,0,0,1-272.96-5.088Zm-3.392-1.856a1.811,1.811,0,0,0-1.136.344,1.7,1.7,0,0,0-.608.92,3.74,3.74,0,0,0-.144.9.057.057,0,0,0,.064.064h3.664a.057.057,0,0,0,.064-.064,4.684,4.684,0,0,0-.1-.784,1.815,1.815,0,0,0-.632-1A1.828,1.828,0,0,0-276.352-6.944Zm8.272-1.328a3.95,3.95,0,0,1,1.7.344,2.61,2.61,0,0,1,1.12.96,2.552,2.552,0,0,1,.392,1.4V-.16a.141.141,0,0,1-.16.16h-1.216a.141.141,0,0,1-.16-.16V-.736q0-.08-.08-.032A2.78,2.78,0,0,1-267.5-.1a3.678,3.678,0,0,1-1.336.232,3.11,3.11,0,0,1-1.96-.6,2.152,2.152,0,0,1-.776-1.816,2.393,2.393,0,0,1,.872-1.96,3.758,3.758,0,0,1,2.44-.712h1.792a.057.057,0,0,0,.064-.064v-.432a1.448,1.448,0,0,0-.408-1.1,1.73,1.73,0,0,0-1.24-.392,2.046,2.046,0,0,0-1.1.264,1.087,1.087,0,0,0-.52.712.17.17,0,0,1-.192.144l-1.3-.176q-.16-.032-.144-.128a2.179,2.179,0,0,1,1.008-1.544A3.832,3.832,0,0,1-268.08-8.272Zm-.416,7.1a2.457,2.457,0,0,0,1.472-.448,1.349,1.349,0,0,0,.624-1.136V-3.7a.057.057,0,0,0-.064-.064h-1.5a2.706,2.706,0,0,0-1.5.368,1.161,1.161,0,0,0-.56,1.024,1.032,1.032,0,0,0,.424.9A1.867,1.867,0,0,0-268.5-1.168ZM-262.624,0a.141.141,0,0,1-.16-.16V-11.04a.141.141,0,0,1,.16-.16h1.216a.141.141,0,0,1,.16.16V-.16a.141.141,0,0,1-.16.16Zm4.528-9.424a1,1,0,0,1-.736-.288,1,1,0,0,1-.288-.736,1,1,0,0,1,.288-.736,1,1,0,0,1,.736-.288,1,1,0,0,1,.736.288,1,1,0,0,1,.288.736,1,1,0,0,1-.288.736A1,1,0,0,1-258.1-9.424Zm-.64,9.408a.141.141,0,0,1-.16-.16V-7.984a.141.141,0,0,1,.16-.16h1.216a.141.141,0,0,1,.16.16V-.176a.141.141,0,0,1-.16.16Zm3.312.016a.141.141,0,0,1-.16-.16V-1.28a.3.3,0,0,1,.064-.192l4.24-5.184q.032-.032.016-.056a.054.054,0,0,0-.048-.024h-4.032a.141.141,0,0,1-.16-.16V-7.984a.141.141,0,0,1,.16-.16h5.776a.141.141,0,0,1,.16.16v1.136a.3.3,0,0,1-.064.192l-4.3,5.184q-.032.032-.016.056a.054.054,0,0,0,.048.024h4.192a.141.141,0,0,1,.16.16V-.16a.141.141,0,0,1-.16.16Zm10.672-8.272a3.95,3.95,0,0,1,1.7.344,2.61,2.61,0,0,1,1.12.96,2.552,2.552,0,0,1,.392,1.4V-.16a.141.141,0,0,1-.16.16h-1.216a.141.141,0,0,1-.16-.16V-.736q0-.08-.08-.032a2.78,2.78,0,0,1-1.016.664A3.678,3.678,0,0,1-245.5.128a3.11,3.11,0,0,1-1.96-.6,2.152,2.152,0,0,1-.776-1.816,2.393,2.393,0,0,1,.872-1.96,3.758,3.758,0,0,1,2.44-.712h1.792a.057.057,0,0,0,.064-.064v-.432a1.448,1.448,0,0,0-.408-1.1,1.73,1.73,0,0,0-1.24-.392,2.046,2.046,0,0,0-1.1.264,1.087,1.087,0,0,0-.52.712.17.17,0,0,1-.192.144l-1.3-.176q-.16-.032-.144-.128a2.179,2.179,0,0,1,1.008-1.544A3.832,3.832,0,0,1-244.752-8.272Zm-.416,7.1a2.457,2.457,0,0,0,1.472-.448,1.349,1.349,0,0,0,.624-1.136V-3.7a.057.057,0,0,0-.064-.064h-1.5a2.706,2.706,0,0,0-1.5.368,1.161,1.161,0,0,0-.56,1.024,1.032,1.032,0,0,0,.424.9A1.867,1.867,0,0,0-245.168-1.168ZM-234.4-11.04a.141.141,0,0,1,.16-.16h1.216a.141.141,0,0,1,.16.16V-.16a.141.141,0,0,1-.16.16h-1.216a.141.141,0,0,1-.16-.16V-.688a.054.054,0,0,0-.024-.048q-.024-.016-.056.016a2.512,2.512,0,0,1-.832.624,2.429,2.429,0,0,1-1.04.224,3.106,3.106,0,0,1-1.912-.568,3.235,3.235,0,0,1-1.112-1.608,6.094,6.094,0,0,1-.3-2.048,6.5,6.5,0,0,1,.256-1.936,3.261,3.261,0,0,1,1.1-1.648,3.131,3.131,0,0,1,1.968-.592,2.522,2.522,0,0,1,1.032.216,2.4,2.4,0,0,1,.84.616q.032.032.056.016a.054.054,0,0,0,.024-.048Zm-.4,8.976a4.322,4.322,0,0,0,.368-2.016,4.218,4.218,0,0,0-.4-2.048,1.479,1.479,0,0,0-1.36-.816,1.549,1.549,0,0,0-1.424.768,3.869,3.869,0,0,0-.512,2.112,4.228,4.228,0,0,0,.4,1.984,1.589,1.589,0,0,0,1.52.88A1.526,1.526,0,0,0-234.8-2.064Zm7.168-6.208a3.95,3.95,0,0,1,1.7.344,2.61,2.61,0,0,1,1.12.96,2.552,2.552,0,0,1,.392,1.4V-.16a.141.141,0,0,1-.16.16h-1.216a.141.141,0,0,1-.16-.16V-.736q0-.08-.08-.032a2.78,2.78,0,0,1-1.016.664,3.678,3.678,0,0,1-1.336.232,3.11,3.11,0,0,1-1.96-.6,2.152,2.152,0,0,1-.776-1.816,2.393,2.393,0,0,1,.872-1.96,3.758,3.758,0,0,1,2.44-.712h1.792a.057.057,0,0,0,.064-.064v-.432a1.448,1.448,0,0,0-.408-1.1,1.73,1.73,0,0,0-1.24-.392,2.046,2.046,0,0,0-1.1.264,1.087,1.087,0,0,0-.52.712.17.17,0,0,1-.192.144L-230.7-6q-.16-.032-.144-.128a2.179,2.179,0,0,1,1.008-1.544A3.832,3.832,0,0,1-227.632-8.272Zm-.416,7.1a2.457,2.457,0,0,0,1.472-.448,1.349,1.349,0,0,0,.624-1.136V-3.7a.057.057,0,0,0-.064-.064h-1.5a2.706,2.706,0,0,0-1.5.368,1.161,1.161,0,0,0-.56,1.024,1.032,1.032,0,0,0,.424.9A1.867,1.867,0,0,0-228.048-1.168Zm15.52-4.928a6.182,6.182,0,0,1,.3,2.048,6.5,6.5,0,0,1-.256,1.936,3.217,3.217,0,0,1-1.1,1.656,3.161,3.161,0,0,1-1.968.584,2.522,2.522,0,0,1-1.032-.216,2.4,2.4,0,0,1-.84-.616q-.032-.032-.056-.016a.054.054,0,0,0-.024.048V2.9a.141.141,0,0,1-.16.16h-1.216a.141.141,0,0,1-.16-.16V-7.984a.141.141,0,0,1,.16-.16h1.216a.141.141,0,0,1,.16.16v.528a.054.054,0,0,0,.024.048q.024.016.056-.016a2.513,2.513,0,0,1,.832-.624,2.429,2.429,0,0,1,1.04-.224,3.106,3.106,0,0,1,1.912.568A3.235,3.235,0,0,1-212.528-6.1Zm-1.76,4.128a3.771,3.771,0,0,0,.512-2.112,4.229,4.229,0,0,0-.4-1.984,1.589,1.589,0,0,0-1.52-.88,1.526,1.526,0,0,0-1.408.864,4.224,4.224,0,0,0-.384,2.016,4.081,4.081,0,0,0,.416,2.048,1.479,1.479,0,0,0,1.36.816A1.549,1.549,0,0,0-214.288-1.968Zm7.312,2.1a3.575,3.575,0,0,1-2.064-.6,3.146,3.146,0,0,1-1.232-1.672A6.156,6.156,0,0,1-210.56-4.1a5.9,5.9,0,0,1,.272-1.92,3.148,3.148,0,0,1,1.232-1.656,3.63,3.63,0,0,1,2.1-.6,3.409,3.409,0,0,1,2.008.6,3.282,3.282,0,0,1,1.224,1.64,5.773,5.773,0,0,1,.288,1.92,6.119,6.119,0,0,1-.288,1.968,3.175,3.175,0,0,1-1.216,1.672A3.473,3.473,0,0,1-206.976.128Zm0-1.328a1.815,1.815,0,0,0,1.12-.36,1.971,1.971,0,0,0,.688-1.016,5.488,5.488,0,0,0,.176-1.5,5.816,5.816,0,0,0-.16-1.488,1.971,1.971,0,0,0-.688-1.016,1.891,1.891,0,0,0-1.168-.36,1.84,1.84,0,0,0-1.136.36,1.971,1.971,0,0,0-.688,1.016,5.109,5.109,0,0,0-.176,1.488,5.28,5.28,0,0,0,.176,1.5,1.869,1.869,0,0,0,.68,1.016A1.926,1.926,0,0,0-206.976-1.2Zm9.12-7.024a2.046,2.046,0,0,1,.928.208.148.148,0,0,1,.08.192l-.256,1.2q-.016.144-.192.1a1.674,1.674,0,0,0-.64-.112l-.224.016a1.794,1.794,0,0,0-1.24.52,1.72,1.72,0,0,0-.488,1.272V-.16a.141.141,0,0,1-.16.16h-1.216a.141.141,0,0,1-.16-.16V-7.984a.141.141,0,0,1,.16-.16h1.216a.141.141,0,0,1,.16.16v.848q0,.048.024.056t.04-.024A2.23,2.23,0,0,1-197.856-8.224Zm4,2.72a1,1,0,0,1-.736-.288,1,1,0,0,1-.288-.736,1,1,0,0,1,.288-.736,1,1,0,0,1,.736-.288,1,1,0,0,1,.736.288,1,1,0,0,1,.288.736,1,1,0,0,1-.288.736A1,1,0,0,1-193.856-5.5Zm0,5.328a1,1,0,0,1-.736-.288,1,1,0,0,1-.288-.736,1,1,0,0,1,.288-.736,1,1,0,0,1,.736-.288,1,1,0,0,1,.736.288,1,1,0,0,1,.288.736,1,1,0,0,1-.288.736A1,1,0,0,1-193.856-.176Zm40.064-9.248a1,1,0,0,1-.736-.288,1,1,0,0,1-.288-.736,1,1,0,0,1,.288-.736,1,1,0,0,1,.736-.288,1,1,0,0,1,.736.288,1,1,0,0,1,.288.736,1,1,0,0,1-.288.736A1,1,0,0,1-153.792-9.424Zm-.64,9.408a.141.141,0,0,1-.16-.16V-7.984a.141.141,0,0,1,.16-.16h1.216a.141.141,0,0,1,.16.16V-.176a.141.141,0,0,1-.16.16Zm12.256-8.24a2.546,2.546,0,0,1,1.92.728,2.79,2.79,0,0,1,.7,2.024V-.16a.141.141,0,0,1-.16.16h-1.2a.141.141,0,0,1-.16-.16V-5.184a1.791,1.791,0,0,0-.44-1.272,1.531,1.531,0,0,0-1.176-.472,1.624,1.624,0,0,0-1.2.464,1.686,1.686,0,0,0-.464,1.248V-.16a.141.141,0,0,1-.16.16h-1.2a.141.141,0,0,1-.16-.16V-5.184a1.791,1.791,0,0,0-.44-1.272,1.531,1.531,0,0,0-1.176-.472,1.544,1.544,0,0,0-1.176.464,1.739,1.739,0,0,0-.44,1.248V-.16a.141.141,0,0,1-.16.16h-1.216a.141.141,0,0,1-.16-.16V-7.984a.141.141,0,0,1,.16-.16h1.216a.141.141,0,0,1,.16.16v.544a.054.054,0,0,0,.024.048q.024.016.056-.016a2.51,2.51,0,0,1,2.048-.848,2.886,2.886,0,0,1,1.392.312,2.163,2.163,0,0,1,.9.92q.048.064.1,0a2.4,2.4,0,0,1,1.016-.928A3.187,3.187,0,0,1-142.176-8.256Zm11.36,2.16a6.182,6.182,0,0,1,.3,2.048,6.5,6.5,0,0,1-.256,1.936,3.217,3.217,0,0,1-1.1,1.656,3.161,3.161,0,0,1-1.968.584,2.522,2.522,0,0,1-1.032-.216,2.4,2.4,0,0,1-.84-.616q-.032-.032-.056-.016a.054.054,0,0,0-.024.048V2.9a.141.141,0,0,1-.16.16h-1.216a.141.141,0,0,1-.16-.16V-7.984a.141.141,0,0,1,.16-.16h1.216a.141.141,0,0,1,.16.16v.528a.054.054,0,0,0,.024.048q.024.016.056-.016a2.513,2.513,0,0,1,.832-.624,2.429,2.429,0,0,1,1.04-.224,3.106,3.106,0,0,1,1.912.568A3.235,3.235,0,0,1-130.816-6.1Zm-1.76,4.128a3.771,3.771,0,0,0,.512-2.112,4.229,4.229,0,0,0-.4-1.984,1.589,1.589,0,0,0-1.52-.88,1.526,1.526,0,0,0-1.408.864,4.224,4.224,0,0,0-.384,2.016,4.081,4.081,0,0,0,.416,2.048A1.479,1.479,0,0,0-134-1.2,1.549,1.549,0,0,0-132.576-1.968ZM-122-5.088a12.707,12.707,0,0,1,.048,1.472.141.141,0,0,1-.16.16h-5.1a.057.057,0,0,0-.064.064,2.769,2.769,0,0,0,.1.832,1.71,1.71,0,0,0,.712,1,2.374,2.374,0,0,0,1.352.36,2.055,2.055,0,0,0,1.824-.976q.08-.16.208-.048l.912.608a.152.152,0,0,1,.048.208A3.106,3.106,0,0,1-123.4-.272a4.078,4.078,0,0,1-1.864.416,3.578,3.578,0,0,1-1.968-.512,3.122,3.122,0,0,1-1.2-1.456,6.074,6.074,0,0,1-.384-2.288,6.785,6.785,0,0,1,.176-1.776,3.058,3.058,0,0,1,1.152-1.744,3.423,3.423,0,0,1,2.1-.64,3.264,3.264,0,0,1,2.416.808A3.888,3.888,0,0,1-122-5.088Zm-3.392-1.856a1.811,1.811,0,0,0-1.136.344,1.7,1.7,0,0,0-.608.92,3.74,3.74,0,0,0-.144.9.057.057,0,0,0,.064.064h3.664a.057.057,0,0,0,.064-.064,4.684,4.684,0,0,0-.1-.784,1.815,1.815,0,0,0-.632-1A1.828,1.828,0,0,0-125.392-6.944Zm8.944-1.28a2.046,2.046,0,0,1,.928.208.148.148,0,0,1,.08.192l-.256,1.2q-.016.144-.192.1a1.674,1.674,0,0,0-.64-.112l-.224.016a1.794,1.794,0,0,0-1.24.52,1.721,1.721,0,0,0-.488,1.272V-.16a.141.141,0,0,1-.16.16h-1.216a.141.141,0,0,1-.16-.16V-7.984a.141.141,0,0,1,.16-.16h1.216a.141.141,0,0,1,.16.16v.848q0,.048.024.056t.04-.024A2.23,2.23,0,0,1-116.448-8.224Zm3.3-1.2a1,1,0,0,1-.736-.288,1,1,0,0,1-.288-.736,1,1,0,0,1,.288-.736,1,1,0,0,1,.736-.288,1,1,0,0,1,.736.288,1,1,0,0,1,.288.736,1,1,0,0,1-.288.736A1,1,0,0,1-113.152-9.424Zm-.64,9.408a.141.141,0,0,1-.16-.16V-7.984a.141.141,0,0,1,.16-.16h1.216a.141.141,0,0,1,.16.16V-.176a.141.141,0,0,1-.16.16Zm7.12.144a3.575,3.575,0,0,1-2.064-.6,3.146,3.146,0,0,1-1.232-1.672,6.156,6.156,0,0,1-.288-1.952,5.9,5.9,0,0,1,.272-1.92,3.148,3.148,0,0,1,1.232-1.656,3.63,3.63,0,0,1,2.1-.6,3.409,3.409,0,0,1,2.008.6,3.281,3.281,0,0,1,1.224,1.64,5.773,5.773,0,0,1,.288,1.92,6.119,6.119,0,0,1-.288,1.968A3.175,3.175,0,0,1-104.64-.472,3.473,3.473,0,0,1-106.672.128Zm0-1.328a1.815,1.815,0,0,0,1.12-.36,1.971,1.971,0,0,0,.688-1.016,5.489,5.489,0,0,0,.176-1.5,5.817,5.817,0,0,0-.16-1.488,1.971,1.971,0,0,0-.688-1.016,1.891,1.891,0,0,0-1.168-.36,1.84,1.84,0,0,0-1.136.36,1.971,1.971,0,0,0-.688,1.016A5.109,5.109,0,0,0-108.7-4.08a5.28,5.28,0,0,0,.176,1.5,1.869,1.869,0,0,0,.68,1.016A1.926,1.926,0,0,0-106.672-1.2ZM-98.256.1a4.568,4.568,0,0,1-1.688-.288,2.639,2.639,0,0,1-1.128-.792,1.748,1.748,0,0,1-.4-1.112v-.176a.141.141,0,0,1,.16-.16h1.152a.141.141,0,0,1,.16.16v.08a.954.954,0,0,0,.488.784,2.139,2.139,0,0,0,1.24.336A2,2,0,0,0-97.1-1.384a.934.934,0,0,0,.448-.792.75.75,0,0,0-.416-.7,6.541,6.541,0,0,0-1.344-.488,12.574,12.574,0,0,1-1.528-.52,2.838,2.838,0,0,1-1.04-.752,1.846,1.846,0,0,1-.424-1.256,2.022,2.022,0,0,1,.84-1.7,3.622,3.622,0,0,1,2.232-.632,4.244,4.244,0,0,1,1.64.3,2.5,2.5,0,0,1,1.1.824,1.964,1.964,0,0,1,.384,1.184v.048a.141.141,0,0,1-.16.16H-96.5a.141.141,0,0,1-.16-.16V-5.92a.918.918,0,0,0-.456-.776,2.166,2.166,0,0,0-1.24-.312,2.15,2.15,0,0,0-1.144.272.831.831,0,0,0-.44.736.765.765,0,0,0,.424.7,6.821,6.821,0,0,0,1.368.512,14.671,14.671,0,0,1,1.544.5,2.752,2.752,0,0,1,1.048.736,1.848,1.848,0,0,1,.432,1.272,2.046,2.046,0,0,1-.856,1.728A3.718,3.718,0,0,1-98.256.1Zm9.984-11.136a.141.141,0,0,1,.16-.16H-86.9a.141.141,0,0,1,.16.16V-.16A.141.141,0,0,1-86.9,0h-1.216a.141.141,0,0,1-.16-.16V-.688A.054.054,0,0,0-88.3-.736q-.024-.016-.056.016a2.512,2.512,0,0,1-.832.624,2.429,2.429,0,0,1-1.04.224A3.106,3.106,0,0,1-92.136-.44a3.235,3.235,0,0,1-1.112-1.608,6.094,6.094,0,0,1-.3-2.048A6.5,6.5,0,0,1-93.3-6.032a3.261,3.261,0,0,1,1.1-1.648,3.131,3.131,0,0,1,1.968-.592,2.522,2.522,0,0,1,1.032.216,2.4,2.4,0,0,1,.84.616q.032.032.056.016a.054.054,0,0,0,.024-.048Zm-.4,8.976A4.322,4.322,0,0,0-88.3-4.08a4.218,4.218,0,0,0-.4-2.048,1.479,1.479,0,0,0-1.36-.816,1.549,1.549,0,0,0-1.424.768A3.869,3.869,0,0,0-92-4.064a4.228,4.228,0,0,0,.4,1.984,1.589,1.589,0,0,0,1.52.88A1.526,1.526,0,0,0-88.672-2.064Zm5.12-7.36a1,1,0,0,1-.736-.288,1,1,0,0,1-.288-.736,1,1,0,0,1,.288-.736,1,1,0,0,1,.736-.288,1,1,0,0,1,.736.288,1,1,0,0,1,.288.736,1,1,0,0,1-.288.736A1,1,0,0,1-83.552-9.424Zm-.64,9.408a.141.141,0,0,1-.16-.16V-7.984a.141.141,0,0,1,.16-.16h1.216a.141.141,0,0,1,.16.16V-.176a.141.141,0,0,1-.16.16Zm8.8-7.968a.141.141,0,0,1,.16-.16h1.216a.141.141,0,0,1,.16.16V-.416a3.257,3.257,0,0,1-1.1,2.768,4.738,4.738,0,0,1-2.936.832q-.256,0-.8-.032a.158.158,0,0,1-.16-.176l.048-1.1a.154.154,0,0,1,.048-.112.133.133,0,0,1,.128-.032q.224.016.656.016A3.079,3.079,0,0,0-76,1.24a2.1,2.1,0,0,0,.608-1.7V-.752A.054.054,0,0,0-75.416-.8q-.024-.016-.056.016A2.449,2.449,0,0,1-77.44,0a3.384,3.384,0,0,1-1.88-.544,2.8,2.8,0,0,1-1.16-1.6A7.193,7.193,0,0,1-80.688-4.1a6.783,6.783,0,0,1,.24-2.048,3.022,3.022,0,0,1,1.08-1.544,2.961,2.961,0,0,1,1.832-.584,2.7,2.7,0,0,1,2.064.8q.032.032.056.024a.037.037,0,0,0,.024-.04Zm-.1,5.376a5.377,5.377,0,0,0,.072-.544q.024-.288.024-.96t-.024-.952A3.406,3.406,0,0,0-75.5-5.6a1.694,1.694,0,0,0-.576-.968,1.683,1.683,0,0,0-1.12-.376,1.683,1.683,0,0,0-1.12.376,2.065,2.065,0,0,0-.64.968,4.638,4.638,0,0,0-.176,1.488,4.68,4.68,0,0,0,.16,1.5,1.809,1.809,0,0,0,.632.968,1.779,1.779,0,0,0,1.144.376,1.7,1.7,0,0,0,1.144-.376A1.711,1.711,0,0,0-75.488-2.608Zm4.7-6.816a1,1,0,0,1-.736-.288,1,1,0,0,1-.288-.736,1,1,0,0,1,.288-.736,1,1,0,0,1,.736-.288,1,1,0,0,1,.736.288,1,1,0,0,1,.288.736,1,1,0,0,1-.288.736A1,1,0,0,1-70.784-9.424Zm-.64,9.408a.141.141,0,0,1-.16-.16V-7.984a.141.141,0,0,1,.16-.16h1.216a.141.141,0,0,1,.16.16V-.176a.141.141,0,0,1-.16.16Zm7.808-7.024a.141.141,0,0,1-.16.16H-65.5a.057.057,0,0,0-.064.064v4.24a1.308,1.308,0,0,0,.3.968,1.309,1.309,0,0,0,.944.3h.464a.141.141,0,0,1,.16.16V-.16a.141.141,0,0,1-.16.16q-.512.032-.736.032a3.148,3.148,0,0,1-1.832-.44,1.871,1.871,0,0,1-.616-1.624V-6.816A.057.057,0,0,0-67.1-6.88h-.976a.141.141,0,0,1-.16-.16v-.944a.141.141,0,0,1,.16-.16h.976a.057.057,0,0,0,.064-.064V-10.1a.141.141,0,0,1,.16-.16h1.152a.141.141,0,0,1,.16.16v1.888a.057.057,0,0,0,.064.064h1.728a.141.141,0,0,1,.16.16Zm4.864-1.232a3.95,3.95,0,0,1,1.7.344,2.61,2.61,0,0,1,1.12.96,2.552,2.552,0,0,1,.392,1.4V-.16A.141.141,0,0,1-55.7,0h-1.216a.141.141,0,0,1-.16-.16V-.736q0-.08-.08-.032A2.78,2.78,0,0,1-58.168-.1,3.678,3.678,0,0,1-59.5.128a3.11,3.11,0,0,1-1.96-.6,2.152,2.152,0,0,1-.776-1.816,2.393,2.393,0,0,1,.872-1.96,3.758,3.758,0,0,1,2.44-.712h1.792a.057.057,0,0,0,.064-.064v-.432a1.448,1.448,0,0,0-.408-1.1,1.73,1.73,0,0,0-1.24-.392,2.046,2.046,0,0,0-1.1.264,1.087,1.087,0,0,0-.52.712.17.17,0,0,1-.192.144L-61.824-6q-.16-.032-.144-.128A2.179,2.179,0,0,1-60.96-7.672,3.832,3.832,0,0,1-58.752-8.272Zm-.416,7.1A2.457,2.457,0,0,0-57.7-1.616a1.349,1.349,0,0,0,.624-1.136V-3.7a.057.057,0,0,0-.064-.064h-1.5a2.706,2.706,0,0,0-1.5.368,1.161,1.161,0,0,0-.56,1.024,1.032,1.032,0,0,0,.424.9A1.867,1.867,0,0,0-59.168-1.168ZM-53.3,0a.141.141,0,0,1-.16-.16V-11.04a.141.141,0,0,1,.16-.16h1.216a.141.141,0,0,1,.16.16V-.16a.141.141,0,0,1-.16.16ZM-43.1-5.088a12.708,12.708,0,0,1,.048,1.472.141.141,0,0,1-.16.16h-5.1a.057.057,0,0,0-.064.064,2.769,2.769,0,0,0,.1.832,1.71,1.71,0,0,0,.712,1,2.374,2.374,0,0,0,1.352.36A2.055,2.055,0,0,0-44.4-2.176q.08-.16.208-.048l.912.608a.152.152,0,0,1,.048.208A3.106,3.106,0,0,1-44.5-.272a4.078,4.078,0,0,1-1.864.416,3.578,3.578,0,0,1-1.968-.512,3.123,3.123,0,0,1-1.2-1.456,6.074,6.074,0,0,1-.384-2.288,6.785,6.785,0,0,1,.176-1.776,3.058,3.058,0,0,1,1.152-1.744,3.423,3.423,0,0,1,2.1-.64,3.264,3.264,0,0,1,2.416.808A3.888,3.888,0,0,1-43.1-5.088ZM-46.5-6.944a1.811,1.811,0,0,0-1.136.344,1.7,1.7,0,0,0-.608.92,3.741,3.741,0,0,0-.144.9.057.057,0,0,0,.064.064h3.664a.057.057,0,0,0,.064-.064,4.684,4.684,0,0,0-.1-.784,1.815,1.815,0,0,0-.632-1A1.828,1.828,0,0,0-46.5-6.944ZM-38.384.1a4.568,4.568,0,0,1-1.688-.288A2.639,2.639,0,0,1-41.2-.984,1.748,1.748,0,0,1-41.6-2.1v-.176a.141.141,0,0,1,.16-.16h1.152a.141.141,0,0,1,.16.16v.08a.954.954,0,0,0,.488.784,2.139,2.139,0,0,0,1.24.336,2,2,0,0,0,1.168-.312.934.934,0,0,0,.448-.792.75.75,0,0,0-.416-.7,6.541,6.541,0,0,0-1.344-.488,12.574,12.574,0,0,1-1.528-.52,2.837,2.837,0,0,1-1.04-.752,1.846,1.846,0,0,1-.424-1.256,2.022,2.022,0,0,1,.84-1.7,3.622,3.622,0,0,1,2.232-.632,4.244,4.244,0,0,1,1.64.3,2.5,2.5,0,0,1,1.1.824,1.964,1.964,0,0,1,.384,1.184v.048a.141.141,0,0,1-.16.16h-1.12a.141.141,0,0,1-.16-.16V-5.92A.918.918,0,0,0-37.24-6.7a2.166,2.166,0,0,0-1.24-.312,2.15,2.15,0,0,0-1.144.272.831.831,0,0,0-.44.736.765.765,0,0,0,.424.7,6.821,6.821,0,0,0,1.368.512,14.67,14.67,0,0,1,1.544.5,2.752,2.752,0,0,1,1.048.736,1.848,1.848,0,0,1,.432,1.272A2.046,2.046,0,0,1-36.1-.544,3.718,3.718,0,0,1-38.384.1Zm5.968-.1a1,1,0,0,1-.736-.288,1,1,0,0,1-.288-.736,1,1,0,0,1,.288-.736,1,1,0,0,1,.736-.288,1,1,0,0,1,.736.288,1,1,0,0,1,.288.736,1,1,0,0,1-.288.736A1,1,0,0,1-32.416,0Zm6.352.128a3.489,3.489,0,0,1-2.08-.616A3.093,3.093,0,0,1-29.328-2.16a6.4,6.4,0,0,1-.24-1.936,7.013,7.013,0,0,1,.24-1.936,3.041,3.041,0,0,1,1.192-1.632,3.531,3.531,0,0,1,2.072-.608,3.643,3.643,0,0,1,2.1.608A2.78,2.78,0,0,1-22.8-6.128a2.246,2.246,0,0,1,.128.528.156.156,0,0,1-.144.16l-1.2.176h-.032q-.112,0-.16-.144l-.048-.256a1.564,1.564,0,0,0-.624-.912,1.957,1.957,0,0,0-1.2-.368,1.863,1.863,0,0,0-1.168.368,1.679,1.679,0,0,0-.624.976,6.481,6.481,0,0,0-.144,1.52,6.4,6.4,0,0,0,.144,1.5,1.781,1.781,0,0,0,.632,1.008,1.829,1.829,0,0,0,1.16.368,1.993,1.993,0,0,0,1.208-.368,1.565,1.565,0,0,0,.632-.96.036.036,0,0,0,.008-.04.036.036,0,0,1,.008-.04v-.064a.135.135,0,0,1,.176-.1l1.2.192q.128.032.128.128v.064a1.016,1.016,0,0,1-.08.352A2.71,2.71,0,0,1-23.968-.464,3.714,3.714,0,0,1-26.064.128Zm8.416,0a3.575,3.575,0,0,1-2.064-.6,3.146,3.146,0,0,1-1.232-1.672A6.156,6.156,0,0,1-21.232-4.1a5.9,5.9,0,0,1,.272-1.92,3.148,3.148,0,0,1,1.232-1.656,3.63,3.63,0,0,1,2.1-.6,3.409,3.409,0,0,1,2.008.6A3.282,3.282,0,0,1-14.4-6.032a5.773,5.773,0,0,1,.288,1.92A6.119,6.119,0,0,1-14.4-2.144,3.175,3.175,0,0,1-15.616-.472,3.473,3.473,0,0,1-17.648.128Zm0-1.328a1.815,1.815,0,0,0,1.12-.36,1.971,1.971,0,0,0,.688-1.016,5.489,5.489,0,0,0,.176-1.5,5.817,5.817,0,0,0-.16-1.488,1.971,1.971,0,0,0-.688-1.016,1.891,1.891,0,0,0-1.168-.36,1.84,1.84,0,0,0-1.136.36A1.971,1.971,0,0,0-19.5-5.568,5.109,5.109,0,0,0-19.68-4.08a5.28,5.28,0,0,0,.176,1.5,1.869,1.869,0,0,0,.68,1.016A1.926,1.926,0,0,0-17.648-1.2ZM-3.632-8.256a2.546,2.546,0,0,1,1.92.728,2.79,2.79,0,0,1,.7,2.024V-.16a.141.141,0,0,1-.16.16h-1.2a.141.141,0,0,1-.16-.16V-5.184a1.791,1.791,0,0,0-.44-1.272,1.531,1.531,0,0,0-1.176-.472,1.624,1.624,0,0,0-1.2.464,1.686,1.686,0,0,0-.464,1.248V-.16a.141.141,0,0,1-.16.16h-1.2a.141.141,0,0,1-.16-.16V-5.184a1.791,1.791,0,0,0-.44-1.272,1.531,1.531,0,0,0-1.176-.472,1.544,1.544,0,0,0-1.176.464,1.739,1.739,0,0,0-.44,1.248V-.16a.141.141,0,0,1-.16.16h-1.216a.141.141,0,0,1-.16-.16V-7.984a.141.141,0,0,1,.16-.16h1.216a.141.141,0,0,1,.16.16v.544a.054.054,0,0,0,.024.048q.024.016.056-.016a2.51,2.51,0,0,1,2.048-.848,2.886,2.886,0,0,1,1.392.312,2.163,2.163,0,0,1,.9.92q.048.064.1,0a2.4,2.4,0,0,1,1.016-.928A3.187,3.187,0,0,1-3.632-8.256Z" transform="translate(827 -109.831)" fill="#fff"></path><path id="Trazado_124" data-name="Trazado 124" d="M1061.288-289.567a12.362,12.362,0,0,0-12.362,12.362,12.362,12.362,0,0,0,12.362,12.362A12.362,12.362,0,0,0,1073.65-277.2,12.362,12.362,0,0,0,1061.288-289.567Zm-1.412,13.774a5.328,5.328,0,0,1-5.328,5.328,5.328,5.328,0,0,1,5.328-5.328Zm7.986,2.664h-5.325v-5.325h-5.325v-5.325h10.65Z" transform="translate(-405.926 162.535)" fill="#fff"></path></g></svg>